<!-- Graphic -->
<svg xmlns="http://www.w3.org/2000/svg" width="20" height="20">
  <path d="M 16.942 3.523 C 15.63 2.91 14.243 2.473 12.816 2.227 C 12.638 2.548 12.43 2.98 12.287 3.324 C 10.749 3.093 9.224 3.093 7.714 3.324 C 7.571 2.98 7.359 2.548 7.179 2.227 C 5.751 2.474 4.362 2.911 3.05 3.526 C 0.439 7.472 -0.269 11.32 0.085 15.114 C 1.817 16.407 3.495 17.193 5.145 17.707 C 5.556 17.143 5.918 16.546 6.229 15.922 C 5.637 15.696 5.066 15.418 4.523 15.091 C 4.665 14.985 4.805 14.875 4.941 14.76 C 8.232 16.299 11.807 16.299 15.059 14.76 C 15.196 14.874 15.335 14.985 15.477 15.091 C 14.933 15.419 14.361 15.698 13.768 15.924 C 14.08 16.55 14.442 17.148 14.851 17.709 C 16.503 17.194 18.183 16.409 19.915 15.114 C 20.33 10.716 19.206 6.904 16.942 3.523 Z M 6.678 12.781 C 5.69 12.781 4.88 11.859 4.88 10.736 C 4.88 9.613 5.672 8.689 6.678 8.689 C 7.683 8.689 8.493 9.611 8.476 10.736 C 8.477 11.859 7.683 12.781 6.678 12.781 Z M 13.322 12.781 C 12.334 12.781 11.524 11.859 11.524 10.736 C 11.524 9.613 12.317 8.689 13.322 8.689 C 14.327 8.689 15.138 9.611 15.12 10.736 C 15.12 11.859 14.327 12.781 13.322 12.781 Z" fill="hsl(0, 0%, 100%)"></path>
</svg>