<!-- Graphic -->
<svg xmlns="http://www.w3.org/2000/svg" width="20" height="20">
  <path d="M 14.043 0 L 5.958 0 C 2.673 0 0 2.673 0 5.958 L 0 14.043 C 0 17.328 2.673 20.001 5.958 20.001 L 14.043 20.001 C 17.328 20.001 20.001 17.328 20.001 14.043 L 20.001 5.958 C 20.001 2.673 17.328 0 14.043 0 Z M 17.989 14.043 C 17.989 16.222 16.222 17.989 14.043 17.989 L 5.958 17.989 C 3.779 17.989 2.012 16.222 2.012 14.043 L 2.012 5.958 C 2.012 3.779 3.779 2.012 5.958 2.012 L 14.043 2.012 C 16.222 2.012 17.989 3.779 17.989 5.958 Z" fill="hsl(0, 0%, 100%)"></path>
  <path d="M 10.001 4.828 C 7.148 4.828 4.828 7.148 4.828 10.001 C 4.828 12.853 7.148 15.174 10.001 15.174 C 12.853 15.174 15.174 12.853 15.174 10.001 C 15.174 7.148 12.853 4.828 10.001 4.828 Z M 10.001 13.162 C 8.255 13.162 6.84 11.746 6.84 10.001 C 6.84 8.255 8.255 6.84 10.001 6.84 C 11.746 6.84 13.162 8.255 13.162 10.001 C 13.162 11.746 11.746 13.162 10.001 13.162 Z" fill="hsl(0, 0%, 100%)"></path>
  <path d="M 13.944 4.866 C 13.944 4.182 14.499 3.627 15.184 3.627 C 15.868 3.627 16.423 4.182 16.423 4.866 C 16.423 5.551 15.868 6.106 15.184 6.106 C 14.499 6.106 13.944 5.551 13.944 4.866 Z" fill="hsl(0, 0%, 100%)"></path>
</svg>