<!-- iconmonstr_medium_1 -->
<svg xmlns="http://www.w3.org/2000/svg" width="20" height="20">
  <path d="M 2.372 5.739 C 2.397 5.494 2.303 5.251 2.119 5.086 L 0.253 2.836 L 0.253 2.5 L 6.051 2.5 L 10.532 12.329 L 14.472 2.5 L 20 2.5 L 20 2.836 L 18.403 4.367 C 18.266 4.472 18.197 4.644 18.226 4.815 L 18.226 16.063 C 18.198 16.234 18.266 16.406 18.403 16.511 L 19.962 18.042 L 19.962 18.377 L 12.119 18.377 L 12.119 18.042 L 13.735 16.473 C 13.893 16.315 13.893 16.268 13.893 16.026 L 13.893 6.934 L 9.402 18.341 L 8.796 18.341 L 3.567 6.934 L 3.567 14.579 C 3.523 14.9 3.63 15.224 3.856 15.456 L 5.957 18.004 L 5.957 18.341 L 0 18.341 L 0 18.004 L 2.101 15.456 C 2.326 15.223 2.426 14.898 2.372 14.579 Z" fill="hsl(0, 0%, 100%)"></path>
</svg>